P2
81 81
32
30 30 30 30 30 30 30 30 30 30 30 30 30 30 30 30 30 30 30 30 30 30 30 30 30 30 30 30 30 30 30 30 30 30 30 30 30 30 30 30 30 30 30 30 30 30 30 30 30 30 30 31 30 30 30 30 30 30 30 30 30 30 30 31 28 26 31 28 26 30 30 30 30 30 27 30 30 30 30 30 30
30 30 30 30 30 30 30 30 30 30 30 30 30 30 30 30 30 30 30 30 30 30 30 30 30 30 30 30 30 30 30 30 30 30 30 30 30 30 30 30 30 30 30 30 30 30 30 30 30 30 30 30 31 30 30 30 30 30 30 30 30 30 30 30 31 31 30 31 31 30 30 30 30 31 24 30 30 30 30 30 30
30 30 30 30 30 30 30 30 30 30 30 30 30 30 30 30 30 30 30 30 30 30 30 30 30 30 30 30 30 30 30 30 30 30 30 30 30 30 30 30 30 30 30 30 30 30 30 30 30 30 30 27 30 30 30 30 30 30 30 30 30 30 30 31 30 30 31 30 30 30 30 30 29 28 27 30 30 30 30 30 30
30 30 30 30 30 30 30 30 30 30 30 30 30 30 30 30 30 30 30 30 30 30 30 30 30 30 30 30 30 30 30 30 30 30 30 30 30 30 30 30 30 30 30 30 30 25 27 30 30 30 30 30 30 30 30 30 30 30 30 30 30 30 30 31 26 23 31 30 30 31 30 30 30 30 30 30 30 27 30 30 30
30 30 30 30 30 30 30 30 30 30 30 30 30 30 30 30 30 30 30 30 30 30 30 30 30 30 30 30 30 30 30 30 30 30 30 30 30 30 30 30 30 30 30 30 30 30 25 16 30 30 30 30 30 30 30 30 30 30 30 30 30 30 30 30 31 24 30 31 30 30 31 30 30 30 30 30 31 24 30 30 30
30 30 30 30 30 30 30 30 30 30 30 30 30 30 30 30 30 30 30 30 30 30 30 30 30 30 30 30 30 30 30 30 30 30 30 30 30 30 30 30 30 30 30 30 30 30 30 30 30 30 30 30 30 30 30 30 30 30 30 30 30 30 30 30 29 2 27 30 30 27 30 30 30 30 30 29 28 27 30 30 30
30 30 30 30 30 30 30 30 30 30 30 30 30 30 30 30 30 30 30 30 30 30 30 30 30 30 30 30 30 30 30 30 30 30 30 30 30 30 30 30 30 30 30 30 30 2 2 30 17 30 30 31 30 30 30 30 30 30 30 30 30 30 30 0 0 0 2 2 2 28 16 10 30 30 17 30 30 30 30 30 30
30 30 30 30 30 30 30 30 30 30 30 30 30 30 30 30 30 30 30 30 30 30 30 30 30 30 30 30 30 30 30 30 30 30 30 30 30 30 30 30 30 30 30 30 30 25 17 17 2 30 30 30 31 30 30 30 30 30 30 30 30 30 30 0 0 0 3 4 14 3 23 31 22 30 30 30 30 30 30 30 30
30 30 30 30 30 30 30 30 30 30 30 30 30 30 30 30 30 30 30 30 30 30 30 30 30 30 30 30 30 30 30 30 30 30 30 30 30 30 30 30 30 30 30 30 30 1 16 4 2 14 25 27 30 30 30 30 30 30 30 30 30 30 30 21 24 19 12 16 8 9 6 2 15 6 17 30 30 30 30 30 30
30 30 30 30 30 30 30 30 30 30 30 30 30 30 30 30 30 30 30 30 30 30 30 30 30 30 30 30 30 30 30 30 30 30 30 30 30 30 30 30 30 30 30 30 17 0 0 0 0 0 0 0 0 0 1 20 29 3 26 30 18 14 2 1 1 1 1 1 1 1 1 1 1 1 1 1 1 1 1 1 1
30 30 30 30 30 30 30 30 30 30 30 30 30 30 30 30 30 30 30 30 30 30 30 30 30 30 30 30 30 30 30 30 30 30 30 30 30 30 30 30 30 30 22 30 30 5 0 0 5 0 0 0 0 0 2 2 17 1 2 17 1 2 3 17 30 30 17 30 30 17 30 30 17 30 30 17 30 30 17 30 30
30 30 30 30 30 30 30 30 30 30 30 30 30 30 30 30 30 30 30 30 30 30 30 30 30 30 30 30 30 30 30 30 30 30 30 30 30 30 30 30 30 30 15 6 17 0 13 31 0 13 31 21 24 19 4 3 3 2 2 2 1 3 3 31 31 29 31 31 29 31 31 29 31 31 29 31 31 29 31 31 29
30 30 30 30 30 30 30 30 30 30 30 30 30 30 30 30 30 30 30 30 30 30 30 30 30 30 30 30 30 30 30 30 30 30 30 30 30 30 30 30 30 27 18 18 1 2 2 30 31 30 30 31 28 26 16 13 2 1 1 1 0 0 0 2 2 30 30 30 30 30 30 30 2 2 30 30 30 30 30 30 30
30 30 30 30 30 30 30 30 30 30 30 30 30 30 30 30 30 30 30 30 30 30 30 30 30 30 30 30 30 30 30 30 30 30 30 30 30 30 30 30 31 24 15 17 2 25 17 17 30 31 30 30 31 31 31 30 30 17 30 30 5 0 0 25 17 17 30 30 30 29 31 28 25 17 17 30 30 30 29 31 28
30 30 30 30 30 30 30 30 30 30 30 30 30 30 30 30 30 30 30 30 30 30 30 30 30 30 30 30 30 30 30 30 30 30 30 30 30 30 30 29 28 27 6 2 2 1 16 4 27 30 30 31 30 30 30 30 30 31 31 29 0 13 31 1 16 4 30 30 30 14 24 18 1 16 4 30 30 30 14 24 18
30 30 30 30 30 30 30 30 30 30 30 30 30 30 30 30 30 30 30 30 30 30 30 30 30 30 30 30 30 30 30 30 30 30 30 30 30 30 31 30 17 15 30 30 17 17 30 30 31 28 26 31 28 26 30 30 30 31 30 30 31 1 8 3 26 30 30 30 30 31 26 23 3 26 30 30 30 30 31 26 23
30 30 30 30 30 30 30 30 30 30 30 30 30 30 30 30 30 30 30 30 30 30 30 30 30 30 30 30 30 30 30 30 30 30 30 30 30 30 30 27 28 3 22 30 30 2 30 30 30 31 31 30 31 31 30 30 30 30 31 30 29 9 6 1 2 17 30 30 30 30 31 24 1 2 17 30 30 30 30 31 24
30 30 30 30 30 30 30 30 30 30 30 30 30 30 30 30 30 30 30 30 30 30 30 30 30 30 30 30 30 30 30 30 30 30 30 30 30 27 27 24 18 6 15 6 17 2 14 25 31 30 30 31 30 30 30 30 30 27 30 30 30 9 8 2 2 2 30 30 30 30 29 2 2 2 2 30 30 30 30 29 2
30 30 30 30 30 30 30 30 30 30 30 30 30 30 30 30 30 30 30 30 30 30 30 30 30 30 30 30 30 30 30 30 30 30 30 27 30 30 30 31 30 30 2 2 30 30 30 30 30 30 30 31 30 30 30 30 30 30 30 30 30 30 30 0 0 0 0 0 0 0 0 0 30 30 30 30 30 30 30 30 30
30 30 30 30 30 30 30 30 30 30 30 30 30 30 30 30 30 30 30 30 30 30 30 30 30 30 30 30 30 30 30 30 30 30 31 24 30 30 30 30 31 30 25 17 17 30 30 30 30 30 30 30 31 30 30 30 30 30 30 30 30 30 30 0 0 0 0 0 0 0 0 0 30 30 30 30 30 30 30 30 30
30 30 30 30 30 30 30 30 30 30 30 30 30 30 30 30 30 30 30 30 30 30 30 30 30 30 30 30 30 30 30 30 30 29 28 27 30 30 30 27 30 30 1 16 4 30 30 30 30 30 30 27 30 30 30 30 30 30 30 30 30 30 30 21 24 19 21 24 19 21 24 19 30 30 30 30 30 30 30 30 30
30 30 30 30 30 30 30 30 30 30 30 30 30 30 30 30 30 30 30 30 30 30 30 30 30 30 30 30 30 30 30 30 30 30 30 30 30 30 17 30 17 15 18 14 2 25 27 30 30 30 30 30 30 30 30 30 30 30 30 30 30 30 30 31 30 30 30 30 30 30 30 30 30 30 30 30 30 30 30 30 30
30 30 30 30 30 30 30 30 30 30 30 30 30 30 30 30 30 30 30 30 30 30 30 30 30 30 30 30 30 30 30 30 30 30 30 30 22 30 30 27 28 3 1 2 3 30 25 16 30 30 30 30 30 30 30 30 30 30 30 30 30 30 30 30 31 30 30 30 30 30 30 30 30 30 30 30 30 30 30 30 30
30 30 30 30 30 30 30 30 30 30 30 30 30 30 30 30 30 30 30 30 30 30 30 30 30 30 30 30 30 30 30 30 30 30 30 30 15 6 17 24 18 6 1 3 3 30 30 30 30 30 30 30 30 30 30 30 30 30 30 30 30 30 30 27 30 30 30 30 30 30 30 30 30 30 30 30 30 30 30 30 30
30 30 30 30 30 30 30 30 30 30 30 30 30 30 30 30 30 30 30 30 30 30 30 30 30 30 30 30 30 30 30 30 17 30 30 17 18 18 1 0 0 0 17 30 30 2 2 30 17 30 30 31 30 30 30 30 30 30 30 30 30 30 30 30 30 27 30 30 27 30 30 31 30 30 30 30 30 30 30 30 30
30 30 30 30 30 30 30 30 30 30 30 30 30 30 30 30 30 30 30 30 30 30 30 30 30 30 30 30 30 30 22 30 30 22 30 30 15 17 2 5 0 0 2 30 30 25 17 17 2 30 30 30 31 30 30 30 30 30 30 30 30 30 30 30 31 24 30 31 24 30 30 30 30 30 30 30 30 30 30 30 30
30 30 30 30 30 30 30 30 30 30 30 30 30 30 30 30 30 30 30 30 30 30 30 30 30 30 30 30 30 30 15 6 17 15 6 17 6 2 2 0 13 31 2 14 25 1 16 4 2 14 25 27 30 30 30 30 30 30 30 30 30 30 30 29 28 27 29 28 27 30 27 27 30 30 30 30 30 30 30 30 30
30 30 30 31 30 30 2 2 30 31 28 26 31 28 26 31 28 26 31 30 30 30 17 15 18 18 1 0 0 0 0 0 0 0 0 0 0 0 0 0 0 0 0 0 0 0 0 0 0 0 0 0 0 0 2 2 30 17 30 30 30 30 30 30 30 30 31 30 30 2 2 30 31 28 26 31 28 26 31 28 26
30 30 30 30 31 30 25 17 17 30 31 31 30 31 31 30 31 31 30 31 30 27 28 3 15 17 2 0 0 0 0 0 0 0 0 0 0 0 0 0 0 0 0 0 0 0 0 0 0 0 0 0 0 0 25 17 17 2 30 30 29 31 28 30 30 30 30 31 30 25 17 17 30 31 31 30 31 31 30 31 31
30 30 30 27 30 30 1 16 4 31 30 30 31 30 30 31 30 30 27 30 30 24 18 6 6 2 2 21 24 19 21 24 19 21 24 19 21 24 19 21 24 19 21 24 19 21 24 19 21 24 19 21 24 19 1 16 4 2 14 25 14 24 18 30 30 30 27 30 30 1 16 4 31 30 30 31 30 30 31 30 30
30 30 17 30 17 15 18 14 2 18 14 2 28 16 10 30 30 30 0 0 0 0 0 0 1 1 1 31 30 30 30 30 30 30 30 30 31 30 30 30 30 30 30 30 30 31 30 30 30 30 30 30 30 30 2 20 1 1 1 1 1 20 29 30 30 17 30 17 15 18 14 2 18 14 2 28 16 10 30 30 30
22 30 30 27 28 3 1 2 3 1 2 3 3 23 31 29 31 28 5 0 0 5 0 0 17 30 30 30 31 30 30 30 30 30 30 30 30 31 30 30 30 30 30 30 30 30 31 30 30 30 30 30 30 30 17 30 17 17 30 30 2 2 17 22 30 30 27 28 3 1 2 3 1 2 3 3 23 31 29 31 28
15 6 17 24 18 6 1 3 3 1 3 3 9 6 2 14 24 18 0 13 31 0 13 31 31 31 29 27 30 30 30 30 30 30 30 30 27 30 30 30 30 30 30 30 30 27 30 30 30 30 30 30 30 30 23 23 23 31 31 29 4 3 3 15 6 17 24 18 6 1 3 3 1 3 3 9 6 2 14 24 18
18 18 1 0 0 0 17 30 30 16 13 2 2 2 2 1 20 29 1 1 1 30 30 30 30 30 30 30 30 27 30 30 27 30 30 31 30 30 27 30 30 27 30 30 31 30 30 27 30 30 27 30 30 31 31 28 26 1 1 1 16 13 2 18 18 1 0 0 0 17 30 30 16 13 2 2 2 2 1 20 29
15 17 2 5 0 0 2 30 30 31 30 30 3 4 14 2 2 17 17 30 30 30 30 30 30 30 30 30 31 24 30 31 24 30 30 30 30 31 24 30 31 24 30 30 30 30 31 24 30 31 24 30 30 30 30 31 31 17 30 30 31 30 30 15 17 2 5 0 0 2 30 30 31 30 30 3 4 14 2 2 17
6 2 2 0 13 31 2 14 25 30 30 30 12 16 8 4 3 3 31 31 29 30 30 30 30 30 30 29 28 27 29 28 27 30 27 27 29 28 27 29 28 27 30 27 27 29 28 27 29 28 27 30 27 27 31 30 30 31 31 29 30 30 30 6 2 2 0 13 31 2 14 25 30 30 30 12 16 8 4 3 3
0 0 0 30 30 30 31 28 26 18 14 2 15 6 14 30 30 30 30 30 30 30 30 30 30 30 17 31 28 26 31 28 26 30 30 30 30 30 30 30 30 30 30 30 30 30 30 30 30 30 30 30 30 30 30 30 30 30 30 30 31 30 30 30 30 27 15 6 14 3 26 30 30 30 30 31 30 30 2 2 30
5 0 0 29 31 28 30 31 31 1 2 3 19 20 8 30 30 30 30 30 30 30 30 30 22 30 30 30 31 31 30 31 31 30 30 30 30 30 30 30 30 30 30 30 30 30 30 30 30 30 30 30 30 30 30 30 30 30 30 30 30 31 30 30 31 24 19 20 8 1 2 17 30 30 30 30 31 30 25 17 17
0 13 31 14 24 18 31 30 30 1 3 3 2 20 12 30 30 30 30 30 30 30 30 30 15 6 17 31 30 30 31 30 30 30 30 30 30 30 30 30 30 30 30 30 30 30 30 30 30 30 30 30 30 30 30 30 30 30 30 30 27 30 30 29 28 27 2 20 12 2 2 2 30 30 30 27 30 30 1 16 4
0 0 0 31 28 26 18 14 2 0 0 0 31 28 26 31 30 30 30 30 30 30 30 27 18 18 1 31 26 23 31 30 30 31 30 30 30 30 30 30 30 30 30 30 30 30 30 31 30 30 27 30 17 15 25 27 30 30 30 30 30 30 30 30 30 30 30 30 27 18 18 1 30 30 17 30 17 15 18 14 2
0 0 0 30 31 31 1 2 3 0 0 0 30 31 31 30 31 30 30 30 30 30 31 24 15 17 2 30 31 24 30 31 30 30 31 30 30 30 30 30 30 30 30 30 30 30 30 30 30 31 24 27 28 3 30 25 16 30 30 30 30 30 30 30 30 30 30 31 24 15 17 2 22 30 30 27 28 3 1 2 3
21 24 19 31 30 30 1 3 3 21 24 19 31 30 30 27 30 30 30 30 30 29 28 27 6 2 2 30 29 2 27 30 30 27 30 30 30 30 30 30 30 30 30 30 30 30 27 27 29 28 27 24 18 6 30 30 30 30 30 30 30 30 30 30 30 30 29 28 27 6 2 2 15 6 17 24 18 6 1 3 3
0 0 0 18 14 2 18 14 2 31 28 26 31 28 26 31 28 26 30 30 31 30 17 15 30 30 17 0 0 0 2 2 2 28 16 10 30 30 30 30 30 30 30 30 30 30 30 30 18 18 1 0 0 0 2 2 30 17 30 30 31 30 30 30 30 30 30 30 31 31 28 26 18 18 1 0 0 0 17 30 30
0 0 0 1 2 3 1 2 3 30 31 31 30 31 31 30 31 31 30 30 30 27 28 3 22 30 30 0 0 0 3 4 14 3 23 31 30 30 30 30 30 30 30 30 30 29 31 28 15 17 2 5 0 0 25 17 17 2 30 30 30 31 30 30 30 30 30 30 30 30 31 31 15 17 2 5 0 0 2 30 30
21 24 19 1 3 3 1 3 3 31 30 30 31 30 30 31 30 30 30 27 27 24 18 6 15 6 17 21 24 19 12 16 8 9 6 2 30 30 30 30 30 30 30 30 30 14 24 18 6 2 2 0 13 31 1 16 4 2 14 25 27 30 30 30 30 30 30 27 27 31 30 30 6 2 2 0 13 31 2 14 25
30 30 27 0 0 0 1 20 29 31 30 30 30 30 30 30 30 30 30 30 27 30 17 15 15 6 14 18 14 2 15 6 14 30 30 30 30 30 30 30 30 30 30 30 30 30 30 27 15 6 14 3 26 30 2 2 2 20 20 20 31 28 26 30 30 30 30 30 30 30 30 30 30 17 15 2 2 2 17 28 24
30 31 24 0 0 0 2 2 17 30 31 30 30 30 30 30 30 30 30 31 24 27 28 3 19 20 8 1 2 3 19 20 8 30 30 30 30 30 30 30 30 30 30 30 30 30 31 24 19 20 8 1 2 17 3 4 14 15 30 14 30 31 31 30 30 30 30 30 30 30 30 30 27 28 3 3 4 14 18 18 20
29 28 27 21 24 19 4 3 3 27 30 30 30 30 30 30 30 30 29 28 27 24 18 6 2 20 12 1 3 3 2 20 12 30 30 30 30 30 30 30 30 30 30 30 30 29 28 27 2 20 12 2 2 2 12 16 8 23 30 25 31 30 30 30 30 30 30 30 30 30 30 30 24 18 6 12 16 8 20 30 30
30 30 31 31 1 8 17 30 30 31 28 26 30 30 30 30 30 30 30 30 30 30 30 27 30 30 27 0 0 0 31 28 26 31 30 30 30 30 30 30 30 30 30 30 30 30 30 30 30 30 27 18 18 1 30 30 27 30 30 30 30 30 30 30 30 30 30 30 30 30 30 30 18 14 2 3 26 30 30 30 27
30 30 30 29 9 6 2 30 30 30 31 31 30 30 30 30 30 30 30 30 30 30 31 24 30 31 24 0 0 0 30 31 31 30 31 30 30 30 30 30 30 30 30 30 30 30 30 30 30 31 24 15 17 2 30 31 24 30 30 30 30 30 30 30 30 30 30 30 30 30 30 30 1 2 3 1 2 17 30 31 24
30 27 27 30 9 8 2 14 25 31 30 30 30 30 30 30 30 30 30 30 30 29 28 27 29 28 27 21 24 19 31 30 30 27 30 30 30 30 30 30 30 30 30 30 30 30 30 30 29 28 27 6 2 2 29 28 27 30 30 30 30 30 30 30 30 30 30 30 30 30 30 30 1 3 3 2 2 2 29 28 27
30 30 30 31 1 8 1 20 29 31 28 26 30 30 30 31 26 23 30 30 27 30 30 30 30 30 30 31 28 26 31 28 26 31 28 26 30 30 30 30 30 30 30 30 30 30 30 30 30 30 31 31 28 26 30 30 30 30 30 30 30 30 30 30 30 30 30 30 30 30 30 30 31 1 8 17 30 30 31 28 26
30 30 30 29 9 6 2 2 17 30 31 31 29 31 28 30 31 24 30 31 24 30 30 30 30 30 30 30 31 31 30 31 31 30 31 31 30 30 30 30 30 30 30 30 30 30 30 30 30 30 30 30 31 31 30 30 30 30 30 30 30 30 30 30 30 30 30 30 30 30 30 30 29 9 6 2 30 30 30 31 31
30 30 30 30 9 8 4 3 3 31 30 30 14 24 18 30 29 2 29 28 27 30 30 30 30 30 30 31 30 30 31 30 30 31 30 30 30 30 30 30 30 30 30 30 30 30 30 30 30 27 27 31 30 30 30 30 30 30 30 30 30 30 30 30 30 30 30 30 30 30 30 30 30 9 8 2 14 25 31 30 30
30 30 27 15 6 14 3 26 30 30 30 30 30 30 30 31 30 30 30 30 30 30 30 30 30 30 30 31 28 26 31 28 26 30 30 30 31 30 30 30 30 30 30 30 30 30 30 30 30 30 30 30 30 30 30 30 30 30 30 30 30 30 30 30 30 30 30 30 30 30 30 30 18 14 2 15 6 14 30 30 30
30 31 24 19 20 8 1 2 17 30 30 30 30 30 30 30 31 30 30 30 30 30 30 30 30 30 30 30 31 31 30 31 31 30 30 30 30 31 30 30 30 30 30 30 30 30 30 30 30 30 30 30 30 30 30 30 30 30 30 30 30 30 30 30 30 30 30 30 30 30 30 30 1 2 3 19 20 8 30 30 30
29 28 27 2 20 12 2 2 2 30 30 30 30 30 30 27 30 30 30 30 30 30 30 30 30 30 30 31 30 30 31 30 30 30 30 30 27 30 30 30 30 30 30 30 30 30 30 30 30 30 30 30 30 30 30 30 30 30 30 30 30 30 30 30 30 30 30 30 30 30 30 30 1 3 3 2 20 12 30 30 30
30 30 30 30 30 27 18 18 1 25 27 30 30 30 30 30 30 30 30 30 30 30 30 30 30 30 30 31 26 23 31 30 30 31 30 30 31 28 26 30 30 30 30 30 30 30 30 31 30 30 27 30 17 15 30 30 30 30 30 30 30 30 30 30 30 31 30 30 27 30 17 15 0 0 0 31 28 26 31 30 30
30 30 30 30 31 24 15 17 2 30 25 16 30 30 30 30 30 30 30 30 30 30 30 30 30 30 30 30 31 24 30 31 30 30 31 30 30 31 31 30 30 30 30 30 30 30 30 30 30 31 24 27 28 3 30 30 30 30 30 30 30 30 30 30 30 30 30 31 24 27 28 3 0 0 0 30 31 31 30 31 30
30 30 30 29 28 27 6 2 2 30 30 30 30 30 30 30 30 30 30 30 30 30 30 30 30 30 30 30 29 2 27 30 30 27 30 30 31 30 30 30 30 30 30 30 30 30 27 27 29 28 27 24 18 6 30 30 30 30 30 30 30 30 30 30 27 27 29 28 27 24 18 6 21 24 19 31 30 30 27 30 30
30 30 30 30 30 31 31 28 26 2 2 30 17 30 30 31 30 30 30 30 30 30 30 30 30 30 30 0 0 0 2 2 2 28 16 10 31 28 26 30 30 30 31 26 23 30 30 30 18 18 1 0 0 0 30 30 30 30 30 30 30 30 30 30 30 30 18 18 1 0 0 0 31 28 26 31 28 26 31 28 26
30 30 30 30 30 30 30 31 31 25 17 17 2 30 30 30 31 30 30 30 30 30 30 30 30 30 30 0 0 0 3 4 14 3 23 31 30 31 31 29 31 28 30 31 24 29 31 28 15 17 2 5 0 0 30 30 30 30 30 30 30 30 30 29 31 28 15 17 2 5 0 0 30 31 31 30 31 31 30 31 31
30 30 30 30 27 27 31 30 30 1 16 4 2 14 25 27 30 30 30 30 30 30 30 30 30 30 30 21 24 19 12 16 8 9 6 2 31 30 30 14 24 18 30 29 2 14 24 18 6 2 2 0 13 31 30 30 30 30 30 30 30 30 30 14 24 18 6 2 2 0 13 31 31 30 30 31 30 30 31 30 30
30 30 30 30 30 30 30 30 30 30 30 27 15 6 14 3 26 30 31 28 26 31 28 26 31 28 26 31 28 26 1 1 1 0 0 0 0 0 0 0 0 0 0 0 0 0 0 0 1 1 1 30 30 31 30 30 30 31 30 30 2 2 30 18 14 2 15 6 14 30 30 30 30 30 30 30 30 30 30 30 30
30 30 30 30 30 30 30 30 30 30 31 24 19 20 8 1 2 17 30 31 31 30 31 31 30 31 31 30 31 31 17 30 30 0 0 0 0 0 0 0 0 0 0 0 0 0 0 0 17 30 30 30 30 30 30 30 30 30 31 30 25 17 17 1 2 3 19 20 8 30 30 30 30 30 30 30 30 30 30 30 30
30 30 30 30 30 30 30 30 30 29 28 27 2 20 12 2 2 2 31 30 30 31 30 30 31 30 30 31 30 30 31 31 29 21 24 19 21 24 19 21 24 19 21 24 19 21 24 19 31 31 29 30 27 27 30 30 30 27 30 30 1 16 4 1 3 3 2 20 12 30 30 30 30 30 30 30 30 30 30 30 30
30 30 30 30 30 30 30 30 30 30 30 30 30 30 27 18 18 1 18 14 2 28 16 10 30 30 30 31 30 30 30 30 30 31 30 30 31 30 30 30 30 30 30 30 30 31 28 26 31 28 26 31 30 30 30 30 17 30 17 15 18 14 2 0 0 0 31 28 26 31 30 30 30 30 30 30 30 30 30 30 30
30 30 30 30 30 30 30 30 30 30 30 30 30 31 24 15 17 2 1 2 3 3 23 31 29 31 28 30 31 30 30 30 30 30 31 30 30 31 30 30 30 30 30 30 30 30 31 31 30 31 31 30 31 30 22 30 30 27 28 3 1 2 3 0 0 0 30 31 31 30 31 30 30 30 30 30 30 30 30 30 30
30 30 30 30 30 30 30 30 30 30 30 30 29 28 27 6 2 2 1 3 3 9 6 2 14 24 18 27 30 30 30 30 30 27 30 30 27 30 30 30 30 30 30 30 30 31 30 30 31 30 30 27 30 30 15 6 17 24 18 6 1 3 3 21 24 19 31 30 30 27 30 30 30 30 30 30 30 30 30 30 30
30 30 30 30 30 30 30 30 30 30 30 30 30 30 31 31 28 26 16 13 2 2 2 2 1 20 29 3 26 30 3 26 30 3 26 30 30 30 27 30 30 27 30 30 31 28 16 10 18 14 2 18 14 2 18 18 1 0 0 0 17 30 30 31 28 26 31 28 26 31 28 26 30 30 30 30 30 30 30 30 30
30 30 30 30 30 30 30 30 30 30 30 30 30 30 30 30 31 31 31 30 30 3 4 14 2 2 17 1 2 17 1 2 17 1 2 17 30 31 24 30 31 24 30 30 30 3 23 31 1 2 3 1 2 3 15 17 2 5 0 0 2 30 30 30 31 31 30 31 31 30 31 31 30 30 30 30 30 30 30 30 30
30 30 30 30 30 30 30 30 30 30 30 30 30 27 27 31 30 30 30 30 30 12 16 8 4 3 3 2 2 2 2 2 2 2 2 2 29 28 27 29 28 27 30 27 27 9 6 2 1 3 3 1 3 3 6 2 2 0 13 31 2 14 25 31 30 30 31 30 30 31 30 30 30 30 30 30 30 30 30 30 30
30 30 30 30 30 30 30 30 30 30 30 30 30 30 30 30 30 30 30 30 30 30 30 30 30 30 30 30 30 27 30 17 15 15 6 14 0 0 0 0 0 0 0 0 0 2 2 2 20 20 20 31 28 26 30 30 30 30 30 30 30 30 30 30 30 30 30 30 30 30 30 30 30 30 30 30 30 30 30 30 30
30 30 30 30 30 30 30 30 30 30 30 30 30 30 30 30 30 30 30 30 30 30 30 30 30 30 30 30 31 24 27 28 3 19 20 8 0 0 0 0 0 0 0 0 0 3 4 14 15 30 14 30 31 31 30 30 30 30 30 30 30 30 30 30 30 30 30 30 30 30 30 30 30 30 30 30 30 30 30 30 30
30 30 30 30 30 30 30 30 30 30 30 30 30 30 30 30 30 30 30 30 30 30 30 30 30 30 30 29 28 27 24 18 6 2 20 12 21 24 19 21 24 19 21 24 19 12 16 8 23 30 25 31 30 30 30 30 30 30 30 30 30 30 30 30 30 30 30 30 30 30 30 30 30 30 30 30 30 30 30 30 30
30 30 30 30 30 30 30 30 30 30 30 30 30 30 30 30 30 30 30 30 30 30 30 30 30 30 30 30 30 30 30 30 27 30 30 27 31 30 30 30 30 30 30 30 30 30 30 27 30 30 30 30 30 30 30 30 30 30 30 30 30 30 30 30 30 30 30 30 30 30 30 30 30 30 30 30 30 30 30 30 30
30 30 30 30 30 30 30 30 30 30 30 30 30 30 30 30 30 30 30 30 30 30 30 30 30 30 30 30 30 30 30 31 24 30 31 24 30 31 30 30 30 30 30 30 30 30 31 24 30 30 30 30 30 30 30 30 30 30 30 30 30 30 30 30 30 30 30 30 30 30 30 30 30 30 30 30 30 30 30 30 30
30 30 30 30 30 30 30 30 30 30 30 30 30 30 30 30 30 30 30 30 30 30 30 30 30 30 30 30 30 30 29 28 27 29 28 27 27 30 30 30 30 30 30 30 30 29 28 27 30 30 30 30 30 30 30 30 30 30 30 30 30 30 30 30 30 30 30 30 30 30 30 30 30 30 30 30 30 30 30 30 30
30 30 30 30 30 30 30 30 30 30 30 30 30 30 30 30 30 30 30 30 30 30 30 30 30 30 30 30 30 27 30 30 30 30 30 30 30 30 27 30 30 27 30 30 31 30 30 30 30 30 30 30 30 30 30 30 30 30 30 30 30 30 30 30 30 30 30 30 30 30 30 30 30 30 30 30 30 30 30 30 30
30 30 30 30 30 30 30 30 30 30 30 30 30 30 30 30 30 30 30 30 30 30 30 30 30 30 30 30 31 24 30 30 30 30 30 30 30 31 24 30 31 24 30 30 30 30 30 30 30 30 30 30 30 30 30 30 30 30 30 30 30 30 30 30 30 30 30 30 30 30 30 30 30 30 30 30 30 30 30 30 30
30 30 30 30 30 30 30 30 30 30 30 30 30 30 30 30 30 30 30 30 30 30 30 30 30 30 30 29 28 27 30 30 30 30 30 30 29 28 27 29 28 27 30 27 27 30 30 30 30 30 30 30 30 30 30 30 30 30 30 30 30 30 30 30 30 30 30 30 30 30 30 30 30 30 30 30 30 30 30 30 30
